<?xml version="1.0" encoding="UTF-8"?><svg id="a" xmlns="http://www.w3.org/2000/svg" viewBox="0 0 46 46"><path d="M31.12,11.51c.44,0,.79.35.79.79v2.85c0,.26.21.46.46.46h2.15c.97,0,1.75.78,1.75,1.75v15.38c0,.97-.78,1.75-1.75,1.75H11.48c-.97,0-1.75-.78-1.75-1.75v-15.38c0-.97.52-1.75,1.48-1.75h2.4c.26,0,.46-.21.46-.46v-2.83c0-.44.35-.79.79-.79h3.99c.44,0,.79.35.79.79v2.83c0,.26.21.46.46.46h5.77c.26,0,.46-.21.46-.46v-2.85c0-.44.35-.79.79-.79h3.99" style="fill:#fff;"/><path d="M31.12,11.51c.44,0,.79.35.79.79v2.85c0,.26.21.46.46.46h2.15c.97,0,1.75.78,1.75,1.75v15.38c0,.97-.78,1.75-1.75,1.75H11.48c-.97,0-1.75-.78-1.75-1.75v-15.38c0-.97.52-1.75,1.48-1.75h2.4c.26,0,.46-.21.46-.46v-2.83c0-.44.35-.79.79-.79h3.99c.44,0,.79.35.79.79v2.83c0,.26.21.46.46.46h5.77c.26,0,.46-.21.46-.46v-2.85c0-.44.35-.79.79-.79h3.99M31.12,9.65h-3.99c-1.46,0-2.65,1.19-2.65,2.65v1.46h-2.98v-1.44c0-1.46-1.19-2.65-2.65-2.65h-3.99c-1.46,0-2.65,1.19-2.65,2.65v1.44h-1.01c-1.99,0-3.34,1.61-3.34,3.61v15.38c0,1.99,1.61,3.61,3.61,3.61h23.04c1.99,0,3.61-1.61,3.61-3.61v-15.38c0-1.99-1.61-3.61-3.61-3.61h-.76v-1.46c0-1.46-1.19-2.65-2.65-2.65h0Z" style="fill:#ccc;"/></svg>